<?xml version="1.0" ?><svg data-name="Layer 1" id="Layer_1" viewBox="0 0 32 32" xmlns="http://www.w3.org/2000/svg"><title/><path d="M12.5,22A9.5,9.5,0,1,1,22,12.5,9.511,9.511,0,0,1,12.5,22Zm0-17A7.5,7.5,0,1,0,20,12.5,7.508,7.508,0,0,0,12.5,5Z"/><path d="M21.5,22.5a1,1,0,0,1-.707-.293l-2.99-2.99A1,1,0,1,1,19.217,17.8l2.99,2.99A1,1,0,0,1,21.5,22.5Z"/><path d="M25.728,28.727a2.993,2.993,0,0,1-2.122-.878l-4.227-4.228a1,1,0,0,1,0-1.414l2.828-2.828a1,1,0,0,1,1.414,0l4.229,4.227a3,3,0,0,1-2.122,5.121ZM21.5,22.914l3.521,3.521a1,1,0,1,0,1.414-1.415L22.914,21.5Z"/></svg>