<svg data-name="Layer 1" viewBox="0 0 32 32" xmlns="http://www.w3.org/2000/svg"><path d="M12.5 22a9.5 9.5 0 119.5-9.5 9.511 9.511 0 01-9.5 9.5zm0-17a7.5 7.5 0 107.5 7.5A7.508 7.508 0 0012.5 5z"/><path d="M21.5 22.5a1 1 0 01-.707-.293l-2.99-2.99a1 1 0 111.414-1.417l2.99 2.99a1 1 0 01-.707 1.71z"/><path d="M25.728 28.727a2.993 2.993 0 01-2.122-.878l-4.227-4.228a1 1 0 010-1.414l2.828-2.828a1 1 0 011.414 0l4.229 4.227a3 3 0 01-2.122 5.121zM21.5 22.914l3.521 3.521a1 1 0 101.414-1.415l-3.521-3.52z"/></svg>