<svg width="48" height="48" fill="none" xmlns="http://www.w3.org/2000/svg"><path fill-rule="evenodd" clip-rule="evenodd" d="M0 24C0 10.745 10.745 0 24 0s24 10.745 24 24-10.745 24-24 24S0 37.255 0 24zm33.895-13.6h-18.99C13.304 10.4 12 11.688 12 13.284v18.928c0 1.596 1.304 2.884 2.905 2.884h16.07l-.75-2.59 1.813 1.666 1.715 1.568L36.8 38.4V13.284c0-1.596-1.304-2.884-2.905-2.884z" fill="#000"/><path fill-rule="evenodd" clip-rule="evenodd" d="M28.425 28.684s-.51-.602-.936-1.134c1.857-.518 2.565-1.666 2.565-1.666a8.147 8.147 0 01-1.63.826 9.414 9.414 0 01-2.054.602c-1.36.252-2.608.182-3.67-.014a12.01 12.01 0 01-2.084-.602 8.356 8.356 0 01-1.034-.476c-.043-.028-.085-.042-.128-.07-.028-.014-.042-.028-.056-.042-.256-.14-.397-.238-.397-.238s.68 1.12 2.48 1.652c-.426.532-.95 1.162-.95 1.162-3.132-.098-4.322-2.128-4.322-2.128 0-4.508 2.04-8.162 2.04-8.162 2.041-1.512 3.983-1.47 3.983-1.47l.142.168c-2.551.728-3.728 1.834-3.728 1.834s.312-.168.837-.406c1.516-.658 2.72-.84 3.216-.882.085-.014.156-.028.241-.028a12.14 12.14 0 012.863-.028c1.346.154 2.792.546 4.266 1.344 0 0-1.12-1.05-3.53-1.778l.2-.224s1.94-.042 3.982 1.47c0 0 2.04 3.654 2.04 8.162 0 0-1.204 2.03-4.336 2.128zm-6.19-6.284c-.802 0-1.435.72-1.435 1.6 0 .88.647 1.6 1.434 1.6.801 0 1.434-.72 1.434-1.6.014-.88-.633-1.6-1.434-1.6zm5.13 0c-.8 0-1.433.72-1.433 1.6 0 .88.647 1.6 1.434 1.6.801 0 1.434-.72 1.434-1.6 0-.88-.633-1.6-1.434-1.6z" fill="#000"/></svg>