<svg width="0" height="0" class="hidden">
  <symbol xmlns="http://www.w3.org/2000/svg" viewBox="0 0 32 32" id="magnifying">
    <path d="M12.5 22a9.5 9.5 0 119.5-9.5 9.511 9.511 0 01-9.5 9.5zm0-17a7.5 7.5 0 107.5 7.5A7.508 7.508 0 0012.5 5z"></path>
    <path d="M21.5 22.5a1 1 0 01-.707-.293l-2.99-2.99a1 1 0 111.414-1.417l2.99 2.99a1 1 0 01-.707 1.71z"></path>
    <path d="M25.728 28.727a2.993 2.993 0 01-2.122-.878l-4.227-4.228a1 1 0 010-1.414l2.828-2.828a1 1 0 011.414 0l4.229 4.227a3 3 0 01-2.122 5.121zM21.5 22.914l3.521 3.521a1 1 0 101.414-1.415l-3.521-3.52z"></path>
  </symbol>
  
  <symbol xmlns="http://www.w3.org/2000/svg" viewBox="0 0 32 32" id="github">
    <path d="M16 0.396c-8.839 0-16 7.167-16 16 0 7.073 4.584 13.068 10.937 15.183 0.803 0.151 1.093-0.344 1.093-0.772 0-0.38-0.009-1.385-0.015-2.719-4.453 0.964-5.391-2.151-5.391-2.151-0.729-1.844-1.781-2.339-1.781-2.339-1.448-0.989 0.115-0.968 0.115-0.968 1.604 0.109 2.448 1.645 2.448 1.645 1.427 2.448 3.744 1.74 4.661 1.328 0.14-1.031 0.557-1.74 1.011-2.135-3.552-0.401-7.287-1.776-7.287-7.907 0-1.751 0.62-3.177 1.645-4.297-0.177-0.401-0.719-2.031 0.141-4.235 0 0 1.339-0.427 4.4 1.641 1.281-0.355 2.641-0.532 4-0.541 1.36 0.009 2.719 0.187 4 0.541 3.043-2.068 4.381-1.641 4.381-1.641 0.859 2.204 0.317 3.833 0.161 4.235 1.015 1.12 1.635 2.547 1.635 4.297 0 6.145-3.74 7.5-7.296 7.891 0.556 0.479 1.077 1.464 1.077 2.959 0 2.14-0.020 3.864-0.020 4.385 0 0.416 0.28 0.916 1.104 0.755 6.4-2.093 10.979-8.093 10.979-15.156 0-8.833-7.161-16-16-16z"></path>
  </symbol>

  <symbol xmlns="http://www.w3.org/2000/svg" viewBox="0 0 48 48" id="instagram">
    <path fill-rule="evenodd" clip-rule="evenodd" d="M0 24C0 10.7452 10.7452 0 24 0C37.2548 0 48 10.7452 48 24C48 37.2548 37.2548 48 24 48C10.7452 48 0 37.2548 0 24ZM24.0012 11.2C20.5249 11.2 20.0886 11.2152 18.7233 11.2773C17.3606 11.3397 16.4305 11.5555 15.6166 11.872C14.7747 12.1989 14.0606 12.6363 13.3491 13.348C12.6371 14.0595 12.1997 14.7736 11.8717 15.6152C11.5544 16.4294 11.3384 17.3598 11.2771 18.7219C11.216 20.0873 11.2 20.5238 11.2 24.0001C11.2 27.4764 11.2155 27.9114 11.2773 29.2767C11.34 30.6394 11.5557 31.5695 11.872 32.3834C12.1992 33.2253 12.6365 33.9394 13.3483 34.6509C14.0595 35.3629 14.7736 35.8013 15.615 36.1283C16.4294 36.4448 17.3598 36.6605 18.7222 36.7229C20.0876 36.7851 20.5236 36.8003 23.9996 36.8003C27.4762 36.8003 27.9111 36.7851 29.2765 36.7229C30.6391 36.6605 31.5703 36.4448 32.3848 36.1283C33.2264 35.8013 33.9394 35.3629 34.6506 34.6509C35.3626 33.9394 35.8 33.2253 36.128 32.3837C36.4427 31.5695 36.6587 30.6391 36.7227 29.277C36.784 27.9116 36.8 27.4764 36.8 24.0001C36.8 20.5238 36.784 20.0876 36.7227 18.7222C36.6587 17.3595 36.4427 16.4294 36.128 15.6155C35.8 14.7736 35.3626 14.0595 34.6506 13.348C33.9386 12.636 33.2266 12.1987 32.384 11.872C31.5679 11.5555 30.6373 11.3397 29.2746 11.2773C27.9092 11.2152 27.4746 11.2 23.9972 11.2H24.0012Z"></path>
    <path fill-rule="evenodd" clip-rule="evenodd" d="M22.8529 13.5067C23.1937 13.5062 23.574 13.5067 24.0012 13.5067C27.4188 13.5067 27.8239 13.519 29.1735 13.5803C30.4215 13.6374 31.0989 13.8459 31.5501 14.0211C32.1474 14.2531 32.5733 14.5304 33.021 14.9784C33.469 15.4264 33.7464 15.8531 33.9789 16.4505C34.1541 16.9011 34.3629 17.5785 34.4197 18.8265C34.481 20.1758 34.4944 20.5812 34.4944 23.9972C34.4944 27.4132 34.481 27.8186 34.4197 29.1679C34.3626 30.4159 34.1541 31.0933 33.9789 31.5439C33.7469 32.1413 33.469 32.5666 33.021 33.0144C32.573 33.4624 32.1477 33.7397 31.5501 33.9717C31.0994 34.1477 30.4215 34.3557 29.1735 34.4128C27.8242 34.4741 27.4188 34.4874 24.0012 34.4874C20.5833 34.4874 20.1782 34.4741 18.8289 34.4128C17.5809 34.3552 16.9035 34.1466 16.4521 33.9714C15.8547 33.7394 15.428 33.4621 14.98 33.0141C14.532 32.5661 14.2547 32.1405 14.0222 31.5429C13.847 31.0922 13.6382 30.4149 13.5814 29.1669C13.52 27.8175 13.5078 27.4122 13.5078 23.994C13.5078 20.5758 13.52 20.1726 13.5814 18.8233C13.6384 17.5753 13.847 16.8979 14.0222 16.4467C14.2542 15.8494 14.532 15.4227 14.98 14.9747C15.428 14.5267 15.8547 14.2494 16.4521 14.0168C16.9033 13.8408 17.5809 13.6328 18.8289 13.5755C20.0097 13.5222 20.4673 13.5062 22.8529 13.5035V13.5067ZM30.8338 15.632C29.9858 15.632 29.2978 16.3193 29.2978 17.1675C29.2978 18.0155 29.9858 18.7035 30.8338 18.7035C31.6818 18.7035 32.3698 18.0155 32.3698 17.1675C32.3698 16.3195 31.6818 15.632 30.8338 15.632ZM24.0012 17.4267C20.371 17.4267 17.4278 20.37 17.4278 24.0001C17.4278 27.6303 20.371 30.5722 24.0012 30.5722C27.6314 30.5722 30.5735 27.6303 30.5735 24.0001C30.5735 20.37 27.6314 17.4267 24.0012 17.4267Z"></path>
    <path fill-rule="evenodd" clip-rule="evenodd" d="M24.0012 19.7334C26.3575 19.7334 28.2679 21.6436 28.2679 24.0001C28.2679 26.3564 26.3575 28.2668 24.0012 28.2668C21.6446 28.2668 19.7345 26.3564 19.7345 24.0001C19.7345 21.6436 21.6446 19.7334 24.0012 19.7334Z"></path>
  </symbol>

  <symbol xmlns="http://www.w3.org/2000/svg" viewBox="0 0 32 32" id="telegram">
    <path d="M16 0.5c-8.563 0-15.5 6.938-15.5 15.5s6.938 15.5 15.5 15.5c8.563 0 15.5-6.938 15.5-15.5s-6.938-15.5-15.5-15.5zM23.613 11.119l-2.544 11.988c-0.188 0.85-0.694 1.056-1.4 0.656l-3.875-2.856-1.869 1.8c-0.206 0.206-0.381 0.381-0.781 0.381l0.275-3.944 7.181-6.488c0.313-0.275-0.069-0.431-0.482-0.156l-8.875 5.587-3.825-1.194c-0.831-0.262-0.85-0.831 0.175-1.231l14.944-5.763c0.694-0.25 1.3 0.169 1.075 1.219z"></path>
  </symbol>

  <symbol xmlns="http://www.w3.org/2000/svg" viewBox="0 0 48 48" id="vk">
    <path fill-rule="evenodd" clip-rule="evenodd" d="M0 24C0 10.7452 10.7452 0 24 0C37.2548 0 48 10.7452 48 24C48 37.2548 37.2548 48 24 48C10.7452 48 0 37.2548 0 24ZM25.2555 31.8761C25.2555 31.8761 25.7175 31.8257 25.9541 31.5762C26.1707 31.3476 26.1632 30.9162 26.1632 30.9162C26.1632 30.9162 26.1344 28.9018 27.0873 28.6043C28.0264 28.3118 29.2321 30.5524 30.5118 31.414C31.4784 32.0654 32.2121 31.9228 32.2121 31.9228L35.6316 31.8761C35.6316 31.8761 37.4196 31.7679 36.5719 30.3877C36.5018 30.2746 36.0773 29.3664 34.0302 27.5006C31.8853 25.5477 32.1733 25.8635 34.7551 22.4849C36.3278 20.4274 36.9563 19.1713 36.7597 18.6343C36.5732 18.1205 35.4162 18.2569 35.4162 18.2569L31.5673 18.2803C31.5673 18.2803 31.2818 18.2422 31.0702 18.3663C30.8636 18.488 30.7296 18.7719 30.7296 18.7719C30.7296 18.7719 30.1211 20.3635 29.3085 21.7179C27.5944 24.5743 26.9095 24.7254 26.629 24.5485C25.9767 24.1343 26.1394 22.8868 26.1394 22.0006C26.1394 19.2316 26.5677 18.0775 25.3068 17.7788C24.8886 17.6793 24.5806 17.6141 23.51 17.6031C22.1365 17.5896 20.9745 17.608 20.3159 17.9239C19.8777 18.134 19.5396 18.6035 19.7462 18.6306C20.0004 18.6637 20.5764 18.783 20.8819 19.191C21.2763 19.7183 21.2625 20.9006 21.2625 20.9006C21.2625 20.9006 21.4892 24.1601 20.7329 24.5644C20.2145 24.8422 19.5033 24.2756 17.9745 21.6835C17.192 20.3562 16.601 18.8887 16.601 18.8887C16.601 18.8887 16.487 18.6146 16.2829 18.4671C16.0363 18.2889 15.6919 18.2336 15.6919 18.2336L12.0346 18.2569C12.0346 18.2569 11.4849 18.2717 11.2833 18.5064C11.1043 18.7141 11.2695 19.1455 11.2695 19.1455C11.2695 19.1455 14.1331 25.7222 17.376 29.037C20.3497 32.0752 23.7254 31.8761 23.7254 31.8761H25.2555Z"></path>
  </symbol>

  <symbol xmlns="http://www.w3.org/2000/svg" viewBox="0 0 48 48" id="discord">
    <path fill-rule="evenodd" clip-rule="evenodd" d="M0 24C0 10.7452 10.7452 0 24 0C37.2548 0 48 10.7452 48 24C48 37.2548 37.2548 48 24 48C10.7452 48 0 37.2548 0 24ZM33.8949 10.4H14.9051C13.3038 10.4 12 11.688 12 13.284V32.212C12 33.808 13.3038 35.096 14.9051 35.096H30.9755L30.2245 32.506L32.0384 34.172L33.7531 35.74L36.8 38.4V13.284C36.8 11.688 35.4962 10.4 33.8949 10.4Z"></path>
    <path fill-rule="evenodd" clip-rule="evenodd" d="M28.4247 28.684C28.4247 28.684 27.9145 28.082 27.4894 27.55C29.3458 27.032 30.0544 25.884 30.0544 25.884C29.4734 26.262 28.9207 26.528 28.4247 26.71C27.7161 27.004 27.0359 27.2 26.3698 27.312C25.0094 27.564 23.7623 27.494 22.6994 27.298C21.8917 27.144 21.1973 26.92 20.6162 26.696C20.2903 26.57 19.936 26.416 19.5817 26.22C19.5392 26.192 19.4967 26.178 19.4542 26.15C19.4258 26.136 19.4117 26.122 19.3975 26.108C19.1424 25.968 19.0007 25.87 19.0007 25.87C19.0007 25.87 19.6809 26.99 21.4807 27.522C21.0555 28.054 20.5312 28.684 20.5312 28.684C17.3993 28.586 16.2089 26.556 16.2089 26.556C16.2089 22.048 18.2496 18.394 18.2496 18.394C20.2903 16.882 22.2318 16.924 22.2318 16.924L22.3735 17.092C19.8226 17.82 18.6464 18.926 18.6464 18.926C18.6464 18.926 18.9582 18.758 19.4825 18.52C20.9989 17.862 22.2034 17.68 22.6994 17.638C22.7845 17.624 22.8553 17.61 22.9403 17.61C23.8048 17.498 24.7826 17.47 25.803 17.582C27.1493 17.736 28.5947 18.128 30.0686 18.926C30.0686 18.926 28.949 17.876 26.5399 17.148L26.7383 16.924C26.7383 16.924 28.6798 16.882 30.7205 18.394C30.7205 18.394 32.7611 22.048 32.7611 26.556C32.7611 26.556 31.5566 28.586 28.4247 28.684ZM22.2341 22.4C21.4327 22.4 20.8 23.1207 20.8 24C20.8 24.8793 21.4467 25.6 22.2341 25.6C23.0355 25.6 23.6682 24.8793 23.6682 24C23.6822 23.1207 23.0355 22.4 22.2341 22.4ZM27.3659 22.4C26.5645 22.4 25.9318 23.1207 25.9318 24C25.9318 24.8793 26.5786 25.6 27.3659 25.6C28.1673 25.6 28.8 24.8793 28.8 24C28.8 23.1207 28.1673 22.4 27.3659 22.4Z"></path>
  </symbol>

  <symbol xmlns="http://www.w3.org/2000/svg" viewBox="0 0 24 24" id="clip">
    <path d="M16.5 6v11.5c0 2.21-1.79 4-4 4s-4-1.79-4-4V5a2.5 2.5 0 015 0v10.5c0 .55-.45 1-1 1s-1-.45-1-1V6H10v9.5a2.5 2.5 0 005 0V5c0-2.21-1.79-4-4-4S7 2.79 7 5v12.5c0 3.04 2.46 5.5 5.5 5.5s5.5-2.46 5.5-5.5V6h-1.5z"></path>
  </symbol>

  <symbol xmlns="http://www.w3.org/2000/svg" viewBox="0 0 24 24" id="quotes">
    <path d="M9.4 16.6L4.8 12l4.6-4.6L8 6l-6 6 6 6 1.4-1.4zm5.2 0l4.6-4.6-4.6-4.6L16 6l6 6-6 6-1.4-1.4z"></path>
  </symbol>

  <symbol xmlns="http://www.w3.org/2000/svg" viewBox="0 0 24 24" id="check">
    <path d="M19.77 5.03l1.4 1.4L8.43 19.17l-5.6-5.6 1.4-1.4 4.2 4.2L19.77 5.03zm0-2.83L8.43 13.54l-4.2-4.2L0 13.57 8.43 22 24 6.43 19.77 2.2z"></path>
  </symbol>

  <symbol xmlns="http://www.w3.org/2000/svg" viewBox="0 0 24 24" id="mail">
    <path d="M2.01 21L23 12 2.01 3 2 10l15 2-15 2 .01 7z"></path>
  </symbol>

  <symbol xmlns="http://www.w3.org/2000/svg" viewBox="0 0 20 20" id="tel">
    <path d="M17.1667 9.54079H19.0834C19.0834 4.62454 15.3717 0.916748 10.4488 0.916748V2.83341C14.3415 2.83341 17.1667 5.65379 17.1667 9.54079Z"></path>
    <path d="M10.4584 6.66672C12.4737 6.66672 13.3334 7.52635 13.3334 9.54172H15.25C15.25 6.4511 13.549 4.75006 10.4584 4.75006V6.66672ZM13.7378 11.8829C13.5536 11.7156 13.3116 11.6263 13.0629 11.634C12.8142 11.6417 12.5782 11.7457 12.4047 11.9241L10.1114 14.2826C9.55944 14.1772 8.44969 13.8312 7.30736 12.6918C6.16503 11.5485 5.81907 10.4359 5.71653 9.88768L8.07307 7.59343C8.25171 7.4201 8.35591 7.18405 8.3636 6.93526C8.37129 6.68646 8.28187 6.44443 8.11428 6.26039L4.57323 2.36668C4.40557 2.18206 4.17254 2.07008 3.92363 2.05451C3.67473 2.03895 3.42956 2.12102 3.24019 2.28331L1.16061 4.06677C0.994924 4.23305 0.896032 4.45436 0.882693 4.68872C0.868318 4.92831 0.594234 10.6036 4.9949 15.0061C8.83398 18.8443 13.6429 19.1251 14.9673 19.1251C15.1609 19.1251 15.2797 19.1193 15.3114 19.1174C15.5457 19.1043 15.7669 19.0049 15.9324 18.8385L17.7149 16.758C17.8773 16.5687 17.9595 16.3236 17.9441 16.0747C17.9287 15.8258 17.8169 15.5927 17.6324 15.4249L13.7378 11.8829Z"></path>
  </symbol>

  <symbol xmlns="http://www.w3.org/2000/svg" viewBox="0 0 18 14" id="email">
    <path d="M15.6667 0.333252H2.33341C1.41675 0.333252 0.675081 1.08325 0.675081 1.99992L0.666748 11.9999C0.666748 12.9166 1.41675 13.6666 2.33341 13.6666H15.6667C16.5834 13.6666 17.3334 12.9166 17.3334 11.9999V1.99992C17.3334 1.08325 16.5834 0.333252 15.6667 0.333252ZM15.3334 3.87492L9.44175 7.55825C9.17508 7.72492 8.82508 7.72492 8.55842 7.55825L2.66675 3.87492C2.58319 3.82801 2.51001 3.76464 2.45166 3.68863C2.3933 3.61262 2.35097 3.52557 2.32723 3.43273C2.30349 3.33989 2.29883 3.2432 2.31355 3.14851C2.32826 3.05382 2.36203 2.9631 2.41282 2.88184C2.4636 2.80058 2.53035 2.73046 2.60902 2.67575C2.68769 2.62103 2.77664 2.58284 2.87049 2.5635C2.96435 2.54416 3.06115 2.54406 3.15504 2.56321C3.24894 2.58236 3.33797 2.62036 3.41675 2.67492L9.00008 6.16658L14.5834 2.67492C14.6622 2.62036 14.7512 2.58236 14.8451 2.56321C14.939 2.54406 15.0358 2.54416 15.1297 2.5635C15.2235 2.58284 15.3125 2.62103 15.3911 2.67575C15.4698 2.73046 15.5366 2.80058 15.5873 2.88184C15.6381 2.9631 15.6719 3.05382 15.6866 3.14851C15.7013 3.2432 15.6967 3.33989 15.6729 3.43273C15.6492 3.52557 15.6069 3.61262 15.5485 3.68863C15.4902 3.76464 15.417 3.82801 15.3334 3.87492Z"></path>
  </symbol>
</svg>